<svg width="720" height="240" viewBox="0 0 720 240" fill="none" xmlns="http://www.w3.org/2000/svg">
  <rect width="720" height="240" fill="white"/>
  <g transform="translate(36 36)">
    <rect width="168" height="168" rx="28" fill="#063D61"/>
    <rect x="30" y="44" width="32" height="32" rx="8" fill="#F58220"/>
    <path d="M39 60L47 68L56 52" stroke="white" stroke-width="5" stroke-linecap="round" stroke-linejoin="round"/>
    <path d="M69 60H91" stroke="white" stroke-width="6" stroke-linecap="round"/>
    <path d="M92 60L84 53M92 60L84 67" stroke="#6DBD2B" stroke-width="5" stroke-linecap="round" stroke-linejoin="round"/>
    <rect x="101" y="44" width="37" height="32" rx="8" fill="#0B5FA5"/>
    <path d="M110 60H129" stroke="white" stroke-width="5" stroke-linecap="round"/>
    <path d="M30 93H138" stroke="#4FB5DF" stroke-width="6" stroke-linecap="round"/>
    <path d="M30 120H114" stroke="#6DBD2B" stroke-width="6" stroke-linecap="round"/>
    <rect x="30" y="141" width="108" height="8" rx="4" fill="#F58220"/>
  </g>
  <g transform="translate(244 77)">
    <text x="0" y="45" fill="#063D61" font-family="Arial, Helvetica, sans-serif" font-size="42" font-weight="700" letter-spacing="1">SIPERMINDA</text>
    <rect x="2" y="66" width="88" height="5" rx="2.5" fill="#F58220"/>
    <text x="0" y="101" fill="#6B7280" font-family="Arial, Helvetica, sans-serif" font-size="19" letter-spacing="0.5">Sistem Permintaan Data</text>
  </g>
</svg>
